A woman gets entangled in a series of bizarre lies in order to take care of herself and her 12 year old son. 

IMDB rating: 4.9/10 (from 252 users)

SOURCE: A Little Help 2011 Blu-Ray 1080p AVC DTS-HD MA-HDChina

SAMPLE INCLUDED: 60s/12.8mb


CAST: 

Jenna Fischer..............Laura
Chris O'Donnell............Bob
Kim Coates.................Mel Kaminsky
Arden Myrin................Ms. Gallagher
Lesley Ann Warren..........Joan
Sam McMurray...............Big bad dan
Brooke Smith...............Kathy Helms
Aida Turturro..............Nancy Feldman
Rob Benedict...............Paul
Nadia Dajani...............Angela Behar
Ron Leibman................Warren
Joy Suprano................Julie
Lynn Cohen.................Mrs. Cosolito
Daniel Yelsky..............Dennis
Shari Albert...............Rhonda 

General
*******
Format                           : Matroska
File size                        : 1.38 GiB
Duration                         : 1h 48mn
Overall bit rate                 : 1 811 Kbps
Encoded date                     : UTC 2011-10-12 15:21:16
Writing application              : mkvmerge v5.0.0 ('Die Wahre Liebe') built on Sep 25 2011 20:33:49
Writing library                  : libebml v1.2.2 + libmatroska v1.3.0

Video
*****
ID                               : 1
Format                           : AVC
Format/Info                      : Advanced Video Codec
Format profile                   : Main@L3.0
Format settings, CABAC           : Yes
Format settings, ReFrames        : 4 frames
Muxing mode                      : Container profile=Unknown@3.0
Codec ID                         : V_MPEG4/ISO/AVC
Duration                         : 1h 47mn
Bit rate                         : 1 391 Kbps
Width                            : 720 pixels
Height                           : 400 pixels
Display aspect ratio             : 16:9
Frame rate mode                  : Variable
Frame rate                       : 23.776 fps
Resolution                       : 8 bits
Colorimetry                      : 4:2:0
Scan type                        : Progressive
Bits/(Pixel*Frame)               : 0.203
Stream size                      : 1.05 GiB (76%)
Color primaries                  : BT.709-5, BT.1361, IEC 61966-2-4, SMPTE RP177
Transfer characteristics         : BT.709-5, BT.1361
Matrix coefficients              : BT.709-5, BT.1361, IEC 61966-2-4 709, SMPTE RP177

Audio
ID                               : 2
Format                           : AC-3
Format/Info                      : Audio Coding 3
Codec ID                         : A_AC3
Duration                         : 1h 48mn
Bit rate mode                    : Constant
Bit rate                         : 384 Kbps
Channel(s)                       : 6 channels
Channel positions                : Front: L C R, Side: L R, LFE
Sampling rate                    : 48.0 KHz
Video delay                      : 21ms
Stream size                      : 299 MiB (21%)

Text(subtitles)
***************
ID                               : 3
Format                           : VobSub
Codec ID                         : S_VOBSUB
Codec ID/Info                    : The same subtitle format used 
Language                         : ENGLISH

PLEASE SEED FOR AS LONG AS POSSIBLE!